<svg width="58" height="58" viewBox="0 0 58 58" fill="none" xmlns="http://www.w3.org/2000/svg">
<path fill-rule="evenodd" clip-rule="evenodd" d="M19.0679 0.794521C19.0679 0.355719 19.4237 0 19.8625 0H38.1364C38.5752 0 38.931 0.355719 38.931 0.79452V18.2739C38.931 18.7127 39.2867 19.0684 39.7255 19.0684H57.2055C57.6443 19.0684 58 19.4241 58 19.8629V38.1369C58 38.5757 57.6443 38.9314 57.2055 38.9314H39.7255C39.2867 38.9314 38.931 39.2871 38.931 39.7259V57.2057C38.931 57.6445 38.5752 58.0002 38.1364 58.0002H19.8625C19.4237 58.0002 19.0679 57.6445 19.0679 57.2057V39.7259C19.0679 39.2871 18.7122 38.9314 18.2734 38.9314H0.794521C0.355719 38.9314 0 38.5757 0 38.1369V19.8629C0 19.4241 0.35572 19.0684 0.794522 19.0684H18.2734C18.7122 19.0684 19.0679 18.7127 19.0679 18.2739V0.794521ZM37.3424 38.1372C37.7812 38.1372 38.137 37.7814 38.137 37.3426V20.6575C38.137 20.2187 37.7812 19.863 37.3424 19.863H20.6575C20.2187 19.863 19.863 20.2187 19.863 20.6575V37.3426C19.863 37.7814 20.2187 38.1372 20.6575 38.1372H37.3424Z" fill="white"/>
</svg>
