<svg width="11" height="17" viewBox="0 0 11 17" fill="none" xmlns="http://www.w3.org/2000/svg">
<path d="M10.6049 12.2347L10.6005 12.2391L6.05567 16.7899C6.01955 16.8258 5.97966 16.8577 5.93669 16.885L5.80582 16.9564L5.71659 16.9862H5.65115C5.55086 17.0046 5.44805 17.0046 5.34776 16.9862H5.2169L5.11576 16.9326C5.0594 16.902 5.00738 16.864 4.96108 16.8196L0.398418 12.2391C0.0928849 11.936 0.0909052 11.4426 0.394012 11.137L0.398418 11.1326C0.706405 10.8388 1.19093 10.8388 1.49894 11.1326L4.21751 13.8452C4.33479 13.9602 4.52313 13.9584 4.63812 13.8411C4.69164 13.7865 4.72208 13.7134 4.72314 13.637V0.779358C4.72312 0.348957 5.07198 3.62396e-05 5.50238 7.62939e-06C5.93278 -2.09808e-05 6.28168 0.348846 6.28173 0.779247V13.637C6.28405 13.8013 6.41907 13.9326 6.58331 13.9303C6.65971 13.9292 6.7328 13.8988 6.78737 13.8452L9.49405 11.1326C9.80282 10.835 10.2918 10.835 10.6005 11.1326C10.9061 11.4357 10.908 11.9291 10.6049 12.2347Z" fill="white"/>
</svg>
