<svg width="356" height="302" viewBox="0 0 356 302" fill="none" xmlns="http://www.w3.org/2000/svg">
<path d="M150.365 110.789C151.186 116.533 151.733 121.456 152.006 125.559C152.28 129.388 152.417 133.49 152.417 137.867C152.417 150.175 150.639 161.799 147.083 172.74C143.801 183.68 139.014 193.39 132.724 201.869C126.433 210.348 118.638 217.049 109.338 221.972C100.312 226.895 90.0555 229.357 78.568 229.357C68.448 229.357 59.422 227.579 51.4902 224.023C43.8318 220.194 37.2675 215.271 31.7972 209.254C26.6005 202.963 22.6345 195.851 19.8994 187.92C17.1643 179.714 15.7967 171.099 15.7967 162.073C15.7967 150.038 18.1216 137.73 22.7713 125.148C27.421 112.567 33.9853 100.395 42.4642 88.6343C50.9431 76.8732 61.1999 65.796 73.2345 55.4024C85.5425 45.009 99.2182 35.983 114.261 28.3247C129.578 20.3928 145.989 14.2387 163.494 9.86251C181.272 5.21279 200.008 2.88794 219.701 2.88794C235.565 2.88794 250.197 4.39226 263.6 7.40089C277.002 10.4095 288.626 14.649 298.473 20.1193C309.413 14.102 319.396 9.72576 328.422 6.99063C337.722 3.98198 346.748 1.79387 355.5 0.426301V5.34955C346.748 6.71711 338.269 8.76846 330.063 11.5036C321.858 13.9652 313.379 18.0679 304.627 23.8117C313.379 30.923 319.943 38.4446 324.32 46.3765C328.969 54.0349 331.294 63.6079 331.294 75.0954C331.294 85.4889 328.969 94.9251 324.32 103.404C319.67 111.883 313.653 119.268 306.268 125.559C298.883 131.576 290.541 136.636 281.241 140.739C271.942 144.841 262.642 147.713 253.343 149.354V150.175C261.275 150.448 268.66 151.816 275.497 154.277C282.335 156.466 288.216 159.748 293.139 164.124C298.336 168.227 302.302 173.56 305.037 180.124C308.046 186.415 309.55 193.937 309.55 202.689C309.55 216.091 306.404 228.673 300.114 240.434C293.823 251.922 285.891 262.042 276.318 270.794C266.745 279.273 256.078 285.974 244.317 290.897C232.556 295.821 221.068 298.282 209.854 298.282C194.264 298.282 181.682 295 172.109 288.436C162.81 281.598 158.16 272.982 158.16 262.589C158.16 255.751 160.212 249.87 164.314 244.947C168.691 240.024 174.434 237.562 181.546 237.562C185.922 237.562 189.751 239.203 193.033 242.485C188.383 243.306 185.101 246.041 183.187 250.691C181.272 255.067 180.315 260.674 180.315 267.512C180.315 274.897 183.05 281.051 188.52 285.974C193.991 290.897 200.965 293.359 209.444 293.359C222.026 293.359 232.966 290.761 242.266 285.564C251.839 280.094 259.77 272.982 266.061 264.23C272.352 255.477 277.002 245.494 280.01 234.28C283.293 223.066 284.934 211.578 284.934 199.817C284.934 191.065 283.429 183.817 280.421 178.073C277.412 172.056 273.309 167.269 268.113 163.714C262.916 160.158 256.762 157.696 249.65 156.329C242.813 154.961 235.428 154.277 227.496 154.277V149.354C239.804 149.354 250.881 147.303 260.728 143.2C270.848 139.097 279.463 133.354 286.575 125.969C293.686 118.584 299.156 109.832 302.986 99.7116C307.088 89.5916 309.14 78.6511 309.14 66.89C309.14 60.5992 307.909 54.4452 305.447 48.4279C302.986 42.4106 299.567 37.0771 295.19 32.4273C282.062 43.9149 269.617 58.5478 257.856 76.3262C246.368 94.1046 234.744 112.977 222.983 132.943C211.495 152.91 199.598 172.876 187.289 192.843C175.255 212.809 162.126 230.861 147.904 246.998C133.954 263.136 118.638 276.264 101.953 286.384C85.269 296.504 66.6701 301.564 46.1566 301.564C31.934 301.564 20.7199 298.556 12.5145 292.538C4.30913 286.521 0.206437 279.273 0.206437 270.794C0.206437 265.324 1.71076 261.084 4.7194 258.076C8.00156 254.794 11.9675 253.152 16.6172 253.152C21.267 253.152 24.6859 254.657 26.874 257.665C29.3356 260.401 30.5664 263.956 30.5664 268.332C30.5664 272.162 29.1988 275.444 26.4637 278.179C24.0021 280.641 20.8567 281.871 17.0275 281.871C17.5745 284.606 18.9421 286.931 21.1302 288.846C23.3183 290.761 25.7799 292.402 28.5151 293.769C31.5237 294.863 34.5323 295.547 37.541 295.821C40.5496 296.368 43.148 296.641 45.3361 296.641C59.0118 296.641 71.0463 294.043 81.4398 288.846C91.8334 283.649 101.543 276.264 110.569 266.691C119.868 256.845 128.894 245.084 137.647 231.408C146.673 217.459 156.382 201.869 166.776 184.637C177.716 166.859 187.836 150.175 197.136 134.585C206.709 118.721 216.282 104.088 225.855 90.6857C235.428 77.2835 245.274 65.1122 255.394 54.1717C265.788 43.2311 277.139 33.9317 289.447 26.2733C280.694 19.162 270.027 14.3755 257.446 11.9139C244.864 9.17872 231.599 7.81116 217.649 7.81116C192.213 7.81116 168.144 12.1874 145.442 20.9398C122.74 29.4187 102.911 40.7695 85.9528 54.9922C68.995 68.9414 55.4561 85.0786 45.3361 103.404C35.4896 121.456 30.5664 140.192 30.5664 159.611C30.5664 166.996 31.5237 174.654 33.4383 182.586C35.3529 190.244 38.2248 197.219 42.054 203.51C46.1566 209.527 51.2166 214.587 57.2339 218.69C63.2512 222.519 70.3626 224.434 78.568 224.434C88.6879 224.434 97.9874 222.245 106.466 217.869C114.945 213.493 122.193 207.476 128.211 199.817C134.228 192.159 138.878 182.996 142.16 172.329C145.715 161.389 147.493 149.628 147.493 137.046C147.493 132.67 147.357 128.43 147.083 124.328C146.809 119.952 146.399 115.575 145.852 111.199L150.365 110.789Z" fill="white"/>
</svg>
