<svg width="522" height="450" viewBox="0 0 522 450" fill="none" xmlns="http://www.w3.org/2000/svg">
<path d="M521.424 4.91999C501.557 8.49599 482.485 14.8533 464.208 23.992C446.328 33.1307 430.037 44.6533 415.336 58.56C424.475 67.3013 432.223 77.2346 438.58 88.36C444.937 99.4853 450.103 111.207 454.076 123.524C458.049 135.444 460.831 147.761 462.42 160.476C464.407 173.191 465.4 185.508 465.4 197.428C465.4 233.188 457.652 266.564 442.156 297.556C426.66 328.151 406.197 354.772 380.768 377.42C355.736 399.671 327.327 417.352 295.54 430.464C263.753 443.179 231.569 449.536 198.988 449.536C186.671 449.536 175.744 449.139 166.208 448.344C156.672 447.947 147.931 447.152 139.984 445.96C132.435 445.165 125.283 443.973 118.528 442.384C112.171 441.192 105.615 439.801 98.86 438.212C93.2973 439.007 87.9333 439.801 82.768 440.596C78 441.788 73.0333 442.781 67.868 443.576C63.1 444.371 57.5373 444.967 51.18 445.364C45.22 445.761 38.2667 445.96 30.32 445.96C20.784 445.96 13.4333 444.967 8.268 442.98C3.10267 441.391 0.520003 438.212 0.520003 433.444C0.520003 428.676 2.50667 425.497 6.48001 423.908C10.8507 421.921 16.4133 420.928 23.168 420.928C27.936 420.928 32.5053 421.325 36.876 422.12C41.644 422.517 46.8093 423.312 52.372 424.504C58.332 425.696 64.888 427.087 72.04 428.676C79.192 429.868 87.9333 431.259 98.264 432.848C118.528 427.683 137.004 417.153 153.692 401.26C170.777 385.367 186.869 366.493 201.968 344.64C217.464 322.787 232.563 298.748 247.264 272.524C261.965 246.3 277.064 220.275 292.56 194.448C308.453 168.224 325.141 143.192 342.624 119.352C360.504 95.512 379.973 74.8506 401.032 57.368C384.344 43.4613 365.669 33.7266 345.008 28.164C324.744 22.204 306.069 19.224 288.984 19.224C256.8 19.224 225.411 24.7866 194.816 35.912C164.619 47.0373 137.6 62.5333 113.76 82.4C90.3173 102.267 71.444 125.709 57.14 152.728C42.836 179.747 35.684 209.149 35.684 240.936C35.684 253.651 36.876 265.769 39.26 277.292C41.644 288.417 45.816 298.351 51.776 307.092C57.736 315.833 65.484 322.787 75.02 327.952C84.556 332.72 96.476 335.104 110.78 335.104C128.66 335.104 144.951 330.932 159.652 322.588C174.751 313.847 187.465 302.324 197.796 288.02C208.524 273.319 216.868 256.432 222.828 237.36C228.788 217.891 231.768 197.627 231.768 176.568V156.304H238.92V173.588C238.92 198.223 235.543 221.069 228.788 242.128C222.033 262.789 212.497 280.868 200.18 296.364C187.863 311.463 173.36 323.383 156.672 332.124C139.984 340.468 121.707 344.64 101.84 344.64C86.7413 344.64 73.4307 341.859 61.908 336.296C50.7827 330.336 41.4453 322.588 33.896 313.052C26.744 303.516 21.1813 292.391 17.208 279.676C13.632 266.961 11.844 253.651 11.844 239.744C11.844 215.109 18.7973 189.481 32.704 162.86C47.008 136.239 66.4773 111.803 91.112 89.552C115.747 66.904 144.752 48.428 178.128 34.124C211.901 19.4226 248.257 12.072 287.196 12.072C310.241 12.072 331.896 15.648 352.16 22.8C372.424 29.5546 390.9 39.2893 407.588 52.004C424.276 39.2893 441.957 28.3626 460.632 19.224C479.307 9.68799 499.173 3.33065 520.232 0.151979L521.424 4.91999ZM188.856 442.384C216.669 442.384 242.099 438.212 265.144 429.868C288.189 421.524 308.851 410.399 327.128 396.492C345.803 382.188 361.895 365.5 375.404 346.428C388.913 327.356 400.237 307.291 409.376 286.232C418.515 264.776 425.269 242.923 429.64 220.672C434.408 198.024 436.792 176.171 436.792 155.112C436.792 139.219 434.607 123.325 430.236 107.432C425.865 91.1413 418.713 77.632 408.78 66.904C392.489 85.1813 377.391 105.843 363.484 128.888C349.975 151.933 336.465 175.773 322.956 200.408C309.447 225.043 295.54 249.479 281.236 273.716C266.932 297.953 251.436 320.601 234.748 341.66C218.06 362.719 199.385 381.592 178.724 398.28C158.46 414.571 135.216 426.888 108.992 435.232V436.424C121.309 438.808 133.627 440.397 145.944 441.192C158.659 441.987 172.963 442.384 188.856 442.384Z" fill="white"/>
</svg>
