<svg width="191" height="99" viewBox="0 0 191 99" fill="none" xmlns="http://www.w3.org/2000/svg">
<path d="M107.653 98.0128C97.7132 98.0128 91.056 91.7204 91.056 82.2969V67.6147C91.056 58.2824 97.7132 51.99 107.653 51.99C117.563 51.99 124.19 58.2824 124.19 67.6147V82.2969C124.19 91.7204 117.563 98.0128 107.653 98.0128ZM96.7404 81.9322C96.7404 88.5589 101.118 92.9971 107.653 92.9971C114.159 92.9971 118.566 88.5589 118.566 81.9322V68.0402C118.566 61.4438 114.159 57.0057 107.653 57.0057C101.118 57.0057 96.7404 61.4438 96.7404 68.0402V81.9322ZM143.569 97.8304C133.842 97.8304 127.853 92.2371 127.853 83.1785V81.1722H133.508V83.0569C133.508 89.0757 137.429 92.8755 143.63 92.8755C149.497 92.8755 153.236 89.6837 153.266 84.5768C153.297 79.8955 150.135 77.0077 144.907 76.9165L141.32 76.8253C133.234 76.6429 128.34 72.2656 128.34 64.7876C128.34 57.1577 134.237 52.1116 143.083 52.1116C152.476 52.1116 158.252 57.2185 158.252 65.4868V67.4323H152.598V65.6084C152.598 60.4103 148.859 57.1273 143.022 57.1273C137.611 57.1273 133.994 60.1063 133.994 64.6356C133.994 68.8306 137.034 71.384 142.141 71.4752L145.728 71.5664C153.935 71.7488 158.951 76.4605 158.951 84.2424C158.951 92.6627 152.993 97.8304 143.569 97.8304ZM171.339 60.4407C171.339 58.7384 170.123 57.5225 168.39 57.5225H158.815V52.7196H189.517V57.5225H179.698C178.148 57.5225 176.962 58.6472 176.962 60.2583V97.2832H171.339V60.4407Z" fill="white"/>
<path d="M128.956 1.29358C124.632 2.07199 120.48 3.45583 116.502 5.4451C112.61 7.43436 109.064 9.94257 105.864 12.9697C107.853 14.8725 109.539 17.0347 110.923 19.4565C112.307 21.8782 113.431 24.4296 114.296 27.1108C115.161 29.7055 115.767 32.3867 116.113 35.1544C116.545 37.922 116.761 40.6032 116.761 43.1979C116.761 50.982 115.075 58.2472 111.702 64.9934C108.329 71.6531 103.874 77.4479 98.339 82.3778C92.8901 87.2213 86.7061 91.0701 79.7869 93.9242C72.8677 96.6919 65.862 98.0758 58.7699 98.0758C56.0887 98.0758 53.7102 97.9893 51.6345 97.8163C49.5587 97.7298 47.6559 97.5568 45.9261 97.2973C44.2828 97.1244 42.726 96.8649 41.2557 96.5189C39.8718 96.2595 38.4448 95.9568 36.9744 95.6108C35.7636 95.7838 34.596 95.9568 33.4716 96.1297C32.4337 96.3892 31.3526 96.6054 30.2282 96.7784C29.1903 96.9514 27.9795 97.0811 26.5956 97.1676C25.2983 97.2541 23.7847 97.2973 22.0549 97.2973C19.9792 97.2973 18.3791 97.0811 17.2547 96.6487C16.1304 96.3027 15.5682 95.6108 15.5682 94.5729C15.5682 93.535 16.0006 92.8431 16.8655 92.4972C17.8169 92.0647 19.0278 91.8485 20.4981 91.8485C21.536 91.8485 22.5306 91.935 23.482 92.108C24.5199 92.1944 25.6442 92.3674 26.8551 92.6269C28.1525 92.8864 29.5795 93.1891 31.1364 93.535C32.6932 93.7945 34.596 94.0972 36.8447 94.4432C41.2557 93.3188 45.2775 91.0268 48.91 87.5672C52.6291 84.1076 56.1319 79.9994 59.4186 75.2424C62.7917 70.4855 66.0783 65.2528 69.2784 59.5445C72.4785 53.8362 75.7651 48.1711 79.1382 42.5493C82.5978 36.8409 86.2304 31.3921 90.036 26.2027C93.928 21.0133 98.166 16.5158 102.75 12.7102C99.1174 9.6831 95.0524 7.56409 90.5549 6.35324C86.1439 5.05589 82.0789 4.40721 78.3598 4.40721C71.3542 4.40721 64.5214 5.61807 57.8617 8.03979C51.2885 10.4615 45.4072 13.8346 40.2178 18.1591C35.1149 22.4836 31.0066 27.5865 27.893 33.4678C24.7794 39.3491 23.2225 45.7494 23.2225 52.6686C23.2225 55.4362 23.482 58.0742 24.0009 60.5824C24.5199 63.0041 25.428 65.1664 26.7254 67.0691C28.0227 68.9719 29.7093 70.4855 31.785 71.6099C33.8608 72.6477 36.4555 73.1667 39.5691 73.1667C43.4612 73.1667 47.0073 72.2585 50.2074 70.4422C53.494 68.5395 56.2617 66.0313 58.5104 62.9176C60.8456 59.7175 62.6619 56.0417 63.9593 51.8902C65.2566 47.6522 65.9053 43.2412 65.9053 38.6572V34.2462H67.4621V38.0085C67.4621 43.3709 66.7269 48.3441 65.2566 52.928C63.7863 57.4255 61.7105 61.3608 59.0293 64.7339C56.3482 68.0205 53.1913 70.6152 49.5587 72.518C45.9261 74.3343 41.9476 75.2424 37.6231 75.2424C34.3365 75.2424 31.4391 74.637 28.9309 73.4261C26.5091 72.1288 24.4766 70.4422 22.8333 68.3665C21.2765 66.2907 20.0657 63.869 19.2008 61.1013C18.4223 58.3337 18.0331 55.4362 18.0331 52.4091C18.0331 47.0467 19.5467 41.4681 22.5739 35.6733C25.6875 29.8785 29.9255 24.5594 35.2879 19.7159C40.6502 14.786 46.964 10.7642 54.2292 7.65058C61.5808 4.45046 69.4946 2.85039 77.9706 2.85039C82.987 2.85039 87.7007 3.6288 92.1117 5.18562C96.5227 6.65595 100.544 8.77495 104.177 11.5426C107.81 8.77495 111.658 6.39648 115.723 4.40721C119.788 2.33146 124.113 0.947621 128.697 0.2557L128.956 1.29358ZM56.5644 96.5189C62.6187 96.5189 68.154 95.6108 73.1704 93.7945C78.1869 91.9782 82.6843 89.5565 86.6629 86.5294C90.7279 83.4157 94.2307 79.7831 97.1714 75.6316C100.112 71.4801 102.577 67.1124 104.566 62.5284C106.556 57.858 108.026 53.101 108.977 48.2576C110.015 43.3277 110.534 38.5707 110.534 33.9868C110.534 30.5272 110.058 27.0676 109.107 23.608C108.156 20.0619 106.599 17.1212 104.437 14.786C100.89 18.7645 97.6038 23.262 94.5767 28.2784C91.636 33.2948 88.6954 38.4842 85.7547 43.8466C82.8141 49.209 79.7869 54.5281 76.6733 59.804C73.5596 65.0799 70.1865 70.0098 66.554 74.5938C62.9214 79.1777 58.8564 83.286 54.3589 86.9186C49.9479 90.4646 44.8883 93.1458 39.1799 94.9621V95.2216C41.8611 95.7405 44.5423 96.0865 47.2235 96.2595C49.9912 96.4324 53.1048 96.5189 56.5644 96.5189Z" fill="white"/>
</svg>
