<svg width="30" height="30" viewBox="0 0 30 30" fill="none" xmlns="http://www.w3.org/2000/svg">
<path d="M9.08853 15.815H11.8289V27.0968C11.8289 27.3195 12.0094 27.5 12.2322 27.5H16.8786C17.1013 27.5 17.2818 27.3195 17.2818 27.0968V15.8681H20.4322C20.637 15.8681 20.8093 15.7144 20.8327 15.511L21.3112 11.3576C21.3243 11.2433 21.2881 11.1289 21.2117 11.0431C21.1351 10.9573 21.0256 10.9082 20.9107 10.9082H17.282V8.30468C17.282 7.51984 17.7046 7.12185 18.5381 7.12185C18.6569 7.12185 20.9107 7.12185 20.9107 7.12185C21.1334 7.12185 21.3139 6.94129 21.3139 6.71863V2.90621C21.3139 2.68347 21.1334 2.50298 20.9107 2.50298H17.6409C17.6179 2.50185 17.5667 2.5 17.4912 2.5C16.9238 2.5 14.9518 2.61137 13.3941 4.04444C11.6681 5.6325 11.908 7.53395 11.9654 7.86363V10.9081H9.08853C8.86579 10.9081 8.6853 11.0886 8.6853 11.3114V15.4117C8.6853 15.6344 8.86579 15.815 9.08853 15.815Z" fill="white"/>
</svg>
