<svg width="30" height="30" viewBox="0 0 30 30" fill="none" xmlns="http://www.w3.org/2000/svg">
<g id="Social / Fill / Instagram">
<g id="Union">
<path fill-rule="evenodd" clip-rule="evenodd" d="M15.0048 8.3966C14.1383 8.39646 13.2803 8.56702 12.4797 8.89854C11.6792 9.23006 10.9518 9.71604 10.3391 10.3287C9.7264 10.9414 9.24041 11.6688 8.90889 12.4693C8.57737 13.2699 8.40681 14.1279 8.40695 14.9943C8.40681 15.8608 8.57737 16.7188 8.90889 17.5194C9.24041 18.3199 9.7264 19.0473 10.3391 19.66C10.9518 20.2726 11.6792 20.7586 12.4797 21.0901C13.2803 21.4217 14.1383 21.5922 15.0048 21.5921C15.8713 21.5922 16.7293 21.4217 17.5299 21.0901C18.3304 20.7586 19.0578 20.2726 19.6705 19.66C20.2832 19.0473 20.7692 18.3199 21.1007 17.5194C21.4322 16.7188 21.6028 15.8608 21.6027 14.9943C21.6028 14.1279 21.4322 13.2699 21.1007 12.4693C20.7692 11.6688 20.2832 10.9414 19.6705 10.3287C19.0578 9.71604 18.3304 9.23006 17.5299 8.89854C16.7293 8.56702 15.8713 8.39646 15.0048 8.3966ZM15.0048 19.2768C14.1581 19.2766 13.3305 19.0253 12.6266 18.5548C11.9227 18.0843 11.3741 17.4156 11.0501 16.6333C10.7262 15.8511 10.6415 14.9903 10.8068 14.1599C10.972 13.3295 11.3797 12.5667 11.9784 11.968C12.5772 11.3693 13.3399 10.9616 14.1703 10.7964C15.0008 10.6311 15.8615 10.7158 16.6438 11.0398C17.4261 11.3637 18.0948 11.9123 18.5653 12.6162C19.0358 13.3201 19.2871 14.1477 19.2873 14.9943C19.2876 15.5568 19.177 16.1138 18.9619 16.6335C18.7468 17.1532 18.4313 17.6254 18.0336 18.0231C17.6359 18.4208 17.1637 18.7362 16.644 18.9514C16.1243 19.1665 15.5673 19.277 15.0048 19.2768Z" fill="white"/>
<path d="M23.406 8.13619C23.406 8.98768 22.7157 9.67795 21.8642 9.67795C21.0127 9.67795 20.3224 8.98768 20.3224 8.13619C20.3224 7.2847 21.0127 6.59443 21.8642 6.59443C22.7157 6.59443 23.406 7.2847 23.406 8.13619Z" fill="white"/>
<path fill-rule="evenodd" clip-rule="evenodd" d="M20.3018 2.22335C17.936 2.11299 12.0764 2.11835 9.70855 2.22335C7.62783 2.32085 5.79247 2.82334 4.31283 4.30295C2.1 6.51575 2.12041 9.4166 2.14917 13.5038C2.15255 13.9841 2.15604 14.4807 2.15604 14.9946C2.15604 15.4755 2.15347 15.9403 2.15098 16.3897C2.12757 20.6143 2.11166 23.485 4.31283 25.6861C6.52972 27.902 9.46261 27.8802 13.5037 27.8502C13.9878 27.8466 14.4881 27.8429 15.0046 27.8429H15.0744C19.975 27.8429 21.6771 27.8429 23.4207 27.1679C25.8025 26.2433 27.6003 24.1144 27.776 20.2905C27.8875 17.9238 27.881 12.0653 27.776 9.6975C27.5639 5.18365 25.1414 2.4462 20.3018 2.22335ZM24.0464 24.0501C22.5535 25.543 20.528 25.5383 16.1532 25.5283C15.7778 25.5274 15.3846 25.5265 14.9735 25.5265C14.7212 25.5265 14.476 25.5267 14.2377 25.5269C9.41533 25.5303 7.39436 25.5318 5.90069 24.034C4.34675 22.4875 4.37245 20.1345 4.40974 16.7195C4.41578 16.167 4.42212 15.5866 4.42212 14.9774C4.42212 14.4608 4.41749 13.9568 4.41299 13.4669C4.36596 8.34389 4.33313 4.76817 9.75569 4.49045L9.81717 4.48828C11.1336 4.44175 11.5746 4.42617 14.9585 4.42617L15.0068 4.45831C15.496 4.45831 15.9762 4.45392 16.4455 4.44963C21.4532 4.40385 25.2191 4.36943 25.465 9.80036C25.526 11.1557 25.54 11.5628 25.54 14.9935C25.5399 15.3012 25.5402 15.5983 25.5405 15.8854V15.8876C25.5449 20.5383 25.5468 22.5427 24.0464 24.0501Z" fill="white"/>
</g>
</g>
</svg>
