<svg width="30" height="30" viewBox="0 0 30 30" fill="none" xmlns="http://www.w3.org/2000/svg">
<g id="Social / Fill / Pinterest">
<path id="Vector" d="M21.0233 4.60948C19.1849 3.53642 17.177 3 15 3C12.8227 3 10.8149 3.53642 8.97641 4.60948C7.13796 5.68258 5.68221 7.13839 4.60941 8.97667C3.5364 10.8154 3 12.8233 3 15.0005C3 17.4277 3.66118 19.6309 4.98428 21.6099C6.30713 23.5895 8.04136 25.0529 10.1874 26.0006C10.1456 24.886 10.2133 23.9643 10.3906 23.2351L11.9373 16.7036C11.6769 16.1933 11.5468 15.5579 11.5468 14.7973C11.5468 13.9119 11.7707 13.1721 12.2186 12.5786C12.6662 11.9846 13.2133 11.6876 13.8592 11.6876C14.3799 11.6876 14.7811 11.8593 15.0624 12.2035C15.3436 12.5471 15.4844 12.9795 15.4844 13.5003C15.4844 13.8234 15.4243 14.2167 15.3048 14.6801C15.1848 15.1437 15.0286 15.6801 14.8361 16.2896C14.6434 16.8988 14.5054 17.3858 14.422 17.7505C14.2759 18.3858 14.3959 18.9301 14.7813 19.3833C15.1665 19.8365 15.6771 20.063 16.3126 20.063C17.4273 20.063 18.3413 19.4434 19.055 18.2037C19.7685 16.964 20.1252 15.4587 20.1252 13.6876C20.1252 12.3231 19.6852 11.2135 18.805 10.3593C17.9247 9.50538 16.6979 9.07804 15.1253 9.07804C13.3647 9.07804 11.9401 9.64339 10.8519 10.7733C9.76336 11.9037 9.21908 13.2555 9.21908 14.8279C9.21908 15.7656 9.48488 16.5523 10.0159 17.1877C10.193 17.3961 10.2503 17.6198 10.1879 17.8592C10.1668 17.9219 10.1253 18.0781 10.0628 18.3279C10.0005 18.5778 9.95862 18.7396 9.93782 18.8123C9.85436 19.1459 9.65657 19.2501 9.34386 19.1248C8.5417 18.7915 7.93224 18.2135 7.51581 17.3905C7.09913 16.5677 6.8909 15.6146 6.8909 14.5312C6.8909 13.8332 7.00274 13.1352 7.22668 12.4372C7.45063 11.7393 7.79935 11.0649 8.27363 10.4135C8.74737 9.76299 9.31522 9.18703 9.9769 8.68711C10.6383 8.18695 11.4431 7.78625 12.391 7.48364C13.3388 7.18182 14.3599 7.03068 15.4536 7.03068C16.9327 7.03068 18.2609 7.35886 19.4379 8.01497C20.6149 8.67137 21.5135 9.52051 22.1333 10.5621C22.7529 11.6038 23.0631 12.7182 23.0631 13.9061C23.0631 15.4687 22.792 16.8751 22.2505 18.1252C21.7088 19.3754 20.9432 20.3571 19.9535 21.0706C18.9636 21.784 17.8386 22.1409 16.5784 22.1409C15.9429 22.1409 15.3492 21.9925 14.7971 21.6954C14.2447 21.3985 13.8646 21.047 13.6563 20.6406C13.1876 22.4842 12.9064 23.5837 12.8126 23.9375C12.6145 24.6773 12.2082 25.5313 11.5937 26.5001C12.7083 26.8334 13.8437 27 15 27C17.177 27 19.1849 26.4636 21.0233 25.3908C22.8617 24.3177 24.3175 22.8619 25.3905 21.0231C26.4633 19.1846 27 17.1769 27 14.9995C27 12.8221 26.4633 10.8145 25.3905 8.97567C24.3177 7.13839 22.8617 5.68258 21.0233 4.60948Z" fill="white"/>
</g>
</svg>
