<svg width="24" height="28" viewBox="0 0 24 28" fill="none" xmlns="http://www.w3.org/2000/svg">
<g id="Group">
<path id="Vector" d="M23.7731 7.30247C22.2395 7.30247 20.8245 6.79442 19.6882 5.93735C18.385 4.95484 17.4487 3.51362 17.1181 1.85249C17.0351 1.43482 16.9916 1.01029 16.9879 0.584473H12.607V12.5551L12.6018 19.112C12.6018 20.8649 11.4603 22.3513 9.87786 22.874C9.40387 23.0308 8.90465 23.097 8.4062 23.0693C7.747 23.0331 7.12926 22.8342 6.59234 22.513C5.44976 21.8296 4.67509 20.5899 4.6541 19.1718C4.62103 16.9554 6.41285 15.1483 8.62768 15.1483C9.06488 15.1483 9.48475 15.2197 9.87786 15.3494V10.9013C9.46323 10.8399 9.04126 10.8079 8.61456 10.8079C6.19031 10.8079 3.92299 11.8156 2.30227 13.631C1.07729 15.003 0.342507 16.7533 0.229141 18.5887C0.0806102 20.9998 0.962872 23.2918 2.67386 24.9829C2.92526 25.2311 3.18926 25.4615 3.46532 25.6741C4.93226 26.803 6.72565 27.415 8.61456 27.415C9.04126 27.415 9.46323 27.3835 9.87786 27.3221C11.6424 27.0607 13.2704 26.253 14.5553 24.9829C16.134 23.4225 17.0063 21.3509 17.0157 19.1461L16.9932 9.3546C17.7481 9.9369 18.5751 10.4192 19.4536 10.7895C20.8282 11.3695 22.2857 11.6634 23.7857 11.6629V7.30142C23.7867 7.30247 23.7741 7.30247 23.7731 7.30247Z" fill="white"/>
</g>
</svg>
